<svg xmlns="http://www.w3.org/2000/svg" xmlns:xlink="http://www.w3.org/1999/xlink" width="441" zoomAndPan="magnify" viewBox="0 0 330.75 368.999991" height="492" preserveAspectRatio="xMidYMid meet" version="1.0"><defs><g/><clipPath id="a38cec1205"><path d="M 0 0.140625 L 329.75 0.140625 L 329.75 266.9375 L 0 266.9375 Z M 0 0.140625 " clip-rule="nonzero"/></clipPath><clipPath id="91635cd98e"><path d="M 75.382812 72 L 254.496094 72 L 254.496094 237 L 75.382812 237 Z M 75.382812 72 " clip-rule="nonzero"/></clipPath><clipPath id="fb442de241"><path d="M 121.589844 162 L 146 162 L 146 189 L 121.589844 189 Z M 121.589844 162 " clip-rule="nonzero"/></clipPath><clipPath id="ad8e84b972"><path d="M 139 140.492188 L 163 140.492188 L 163 171 L 139 171 Z M 139 140.492188 " clip-rule="nonzero"/></clipPath><clipPath id="b0a282ef8a"><path d="M 166 140.492188 L 190 140.492188 L 190 171 L 166 171 Z M 166 140.492188 " clip-rule="nonzero"/></clipPath><clipPath id="bcea49b79a"><path d="M 133.335938 171 L 194.90625 171 L 194.90625 220.683594 L 133.335938 220.683594 Z M 133.335938 171 " clip-rule="nonzero"/></clipPath><clipPath id="6554aaeb5c"><path d="M 184 162 L 208.523438 162 L 208.523438 189 L 184 189 Z M 184 162 " clip-rule="nonzero"/></clipPath><clipPath id="7e9a804441"><path d="M 50.835938 155.402344 L 61.097656 155.402344 L 61.097656 165.660156 L 50.835938 165.660156 Z M 50.835938 155.402344 " clip-rule="nonzero"/></clipPath><clipPath id="cf8db9df66"><path d="M 55.96875 155.402344 C 53.132812 155.402344 50.835938 157.699219 50.835938 160.53125 C 50.835938 163.363281 53.132812 165.660156 55.96875 165.660156 C 58.800781 165.660156 61.097656 163.363281 61.097656 160.53125 C 61.097656 157.699219 58.800781 155.402344 55.96875 155.402344 Z M 55.96875 155.402344 " clip-rule="nonzero"/></clipPath></defs><g clip-path="url(#a38cec1205)"><path fill="#95cb7e" d="M 327.980469 149.296875 L 190.082031 10.601562 C 189.269531 9.773438 188.414062 8.992188 187.523438 8.25 C 186.628906 7.507812 185.703125 6.8125 184.742188 6.160156 C 183.78125 5.511719 182.789062 4.910156 181.769531 4.359375 C 180.75 3.808594 179.703125 3.308594 178.632812 2.859375 C 177.5625 2.414062 176.472656 2.019531 175.363281 1.679688 C 174.253906 1.339844 173.132812 1.054688 171.992188 0.828125 C 170.855469 0.597656 169.710938 0.425781 168.554688 0.3125 C 167.402344 0.195312 166.242188 0.140625 165.082031 0.140625 C 163.921875 0.140625 162.765625 0.195312 161.609375 0.3125 C 160.457031 0.425781 159.308594 0.597656 158.171875 0.828125 C 157.035156 1.054688 155.910156 1.339844 154.800781 1.679688 C 153.691406 2.019531 152.601562 2.414062 151.53125 2.859375 C 150.460938 3.308594 149.417969 3.808594 148.398438 4.359375 C 147.375 4.910156 146.386719 5.511719 145.421875 6.160156 C 144.460938 6.8125 143.535156 7.507812 142.644531 8.25 C 141.75 8.992188 140.898438 9.773438 140.082031 10.601562 L 1.585938 149.296875 C 1.347656 149.523438 1.132812 149.769531 0.945312 150.039062 C 0.757812 150.304688 0.597656 150.589844 0.464844 150.890625 C 0.335938 151.191406 0.238281 151.503906 0.171875 151.824219 C 0.105469 152.144531 0.0703125 152.46875 0.0703125 152.796875 C 0.0703125 153.125 0.105469 153.449219 0.171875 153.773438 C 0.238281 154.09375 0.335938 154.40625 0.464844 154.707031 C 0.597656 155.007812 0.757812 155.292969 0.945312 155.558594 C 1.132812 155.828125 1.347656 156.074219 1.585938 156.296875 C 1.8125 156.539062 2.058594 156.75 2.324219 156.941406 C 2.59375 157.128906 2.878906 157.289062 3.179688 157.417969 C 3.480469 157.550781 3.792969 157.648438 4.113281 157.714844 C 4.433594 157.78125 4.757812 157.8125 5.085938 157.8125 C 5.414062 157.8125 5.738281 157.78125 6.058594 157.714844 C 6.382812 157.648438 6.691406 157.550781 6.992188 157.417969 C 7.292969 157.289062 7.578125 157.128906 7.847656 156.941406 C 8.117188 156.75 8.363281 156.539062 8.585938 156.296875 L 146.984375 17.902344 C 147.566406 17.324219 148.179688 16.78125 148.816406 16.265625 C 149.453125 15.746094 150.117188 15.265625 150.800781 14.8125 C 151.484375 14.359375 152.191406 13.941406 152.914062 13.558594 C 153.640625 13.175781 154.382812 12.828125 155.144531 12.519531 C 155.902344 12.207031 156.675781 11.933594 157.460938 11.699219 C 158.246094 11.460938 159.042969 11.265625 159.847656 11.105469 C 160.652344 10.949219 161.460938 10.828125 162.277344 10.75 C 163.09375 10.667969 163.914062 10.628906 164.734375 10.628906 C 165.554688 10.628906 166.371094 10.667969 167.1875 10.75 C 168.003906 10.828125 168.816406 10.949219 169.621094 11.105469 C 170.425781 11.265625 171.222656 11.460938 172.007812 11.699219 C 172.792969 11.933594 173.566406 12.207031 174.324219 12.519531 C 175.082031 12.828125 175.824219 13.175781 176.550781 13.558594 C 177.277344 13.941406 177.980469 14.359375 178.664062 14.8125 C 179.351562 15.265625 180.011719 15.746094 180.648438 16.265625 C 181.289062 16.78125 181.898438 17.324219 182.484375 17.902344 L 320.878906 156.296875 C 321.339844 156.773438 321.871094 157.140625 322.476562 157.402344 C 323.085938 157.664062 323.71875 157.792969 324.378906 157.796875 C 325.054688 157.796875 325.707031 157.667969 326.328125 157.40625 C 326.953125 157.144531 327.503906 156.777344 327.980469 156.296875 C 328.207031 156.066406 328.410156 155.816406 328.585938 155.546875 C 328.765625 155.273438 328.914062 154.988281 329.039062 154.6875 C 329.160156 154.390625 329.253906 154.078125 329.316406 153.761719 C 329.378906 153.445312 329.410156 153.121094 329.410156 152.796875 C 329.410156 152.472656 329.378906 152.152344 329.316406 151.835938 C 329.253906 151.515625 329.160156 151.207031 329.039062 150.910156 C 328.914062 150.609375 328.765625 150.324219 328.585938 150.050781 C 328.410156 149.78125 328.207031 149.53125 327.980469 149.296875 Z M 268.382812 231.398438 C 268.382812 232.230469 268.339844 233.0625 268.257812 233.890625 C 268.175781 234.71875 268.054688 235.542969 267.894531 236.359375 C 267.730469 237.175781 267.53125 237.984375 267.289062 238.78125 C 267.046875 239.578125 266.769531 240.363281 266.449219 241.132812 C 266.132812 241.902344 265.777344 242.65625 265.386719 243.390625 C 264.992188 244.125 264.566406 244.839844 264.105469 245.53125 C 263.644531 246.226562 263.148438 246.894531 262.621094 247.539062 C 262.09375 248.183594 261.535156 248.800781 260.949219 249.390625 C 260.359375 249.984375 259.746094 250.542969 259.101562 251.074219 C 258.460938 251.601562 257.792969 252.101562 257.101562 252.5625 C 256.410156 253.027344 255.695312 253.457031 254.960938 253.851562 C 254.230469 254.246094 253.476562 254.605469 252.710938 254.925781 C 251.941406 255.246094 251.15625 255.53125 250.363281 255.773438 C 249.566406 256.019531 248.757812 256.222656 247.941406 256.390625 C 247.125 256.554688 246.304688 256.679688 245.472656 256.765625 C 244.644531 256.847656 243.816406 256.894531 242.980469 256.894531 L 86.585938 256.894531 C 85.75 256.894531 84.917969 256.855469 84.085938 256.773438 C 83.253906 256.691406 82.429688 256.570312 81.609375 256.40625 C 80.792969 256.242188 79.980469 256.039062 79.183594 255.796875 C 78.382812 255.554688 77.597656 255.273438 76.828125 254.957031 C 76.054688 254.636719 75.300781 254.277344 74.566406 253.886719 C 73.828125 253.492188 73.113281 253.0625 72.417969 252.597656 C 71.722656 252.136719 71.054688 251.636719 70.410156 251.109375 C 69.761719 250.578125 69.144531 250.019531 68.554688 249.429688 C 67.964844 248.835938 67.402344 248.21875 66.875 247.574219 C 66.34375 246.929688 65.847656 246.257812 65.382812 245.5625 C 64.917969 244.871094 64.488281 244.152344 64.097656 243.417969 C 63.703125 242.679688 63.347656 241.925781 63.027344 241.15625 C 62.707031 240.382812 62.425781 239.597656 62.183594 238.800781 C 61.941406 238 61.738281 237.191406 61.574219 236.371094 C 61.414062 235.550781 61.289062 234.726562 61.207031 233.894531 C 61.125 233.066406 61.085938 232.230469 61.085938 231.398438 L 61.085938 160.597656 L 51.085938 160.597656 L 51.085938 231.496094 C 51.085938 232.660156 51.144531 233.820312 51.257812 234.976562 C 51.371094 236.132812 51.539062 237.28125 51.769531 238.421875 C 51.996094 239.5625 52.277344 240.6875 52.613281 241.800781 C 52.953125 242.914062 53.34375 244.007812 53.789062 245.082031 C 54.234375 246.15625 54.730469 247.207031 55.277344 248.230469 C 55.824219 249.257812 56.421875 250.253906 57.070312 251.21875 C 57.714844 252.1875 58.40625 253.117188 59.144531 254.015625 C 59.882812 254.917969 60.660156 255.777344 61.484375 256.597656 C 62.304688 257.421875 63.164062 258.199219 64.066406 258.9375 C 64.964844 259.675781 65.894531 260.367188 66.863281 261.011719 C 67.828125 261.660156 68.824219 262.257812 69.851562 262.804688 C 70.875 263.351562 71.925781 263.847656 73 264.292969 C 74.074219 264.738281 75.167969 265.128906 76.28125 265.46875 C 77.394531 265.804688 78.519531 266.085938 79.660156 266.3125 C 80.800781 266.539062 81.949219 266.710938 83.105469 266.824219 C 84.261719 266.9375 85.421875 266.996094 86.585938 266.996094 L 242.980469 266.996094 C 244.140625 266.992188 245.300781 266.933594 246.453125 266.816406 C 247.609375 266.699219 248.753906 266.527344 249.894531 266.296875 C 251.03125 266.066406 252.15625 265.785156 253.265625 265.445312 C 254.375 265.105469 255.464844 264.710938 256.535156 264.265625 C 257.605469 263.820312 258.652344 263.320312 259.675781 262.773438 C 260.699219 262.222656 261.691406 261.625 262.65625 260.980469 C 263.621094 260.332031 264.550781 259.640625 265.445312 258.902344 C 266.339844 258.164062 267.199219 257.386719 268.019531 256.5625 C 268.839844 255.742188 269.617188 254.882812 270.351562 253.984375 C 271.085938 253.085938 271.777344 252.152344 272.417969 251.1875 C 273.0625 250.222656 273.65625 249.226562 274.203125 248.203125 C 274.75 247.179688 275.246094 246.132812 275.6875 245.058594 C 276.132812 243.988281 276.523438 242.894531 276.859375 241.785156 C 277.195312 240.671875 277.476562 239.546875 277.703125 238.410156 C 277.925781 237.273438 278.097656 236.125 278.210938 234.96875 C 278.324219 233.816406 278.382812 232.65625 278.382812 231.496094 L 278.382812 160.597656 L 268.382812 160.597656 Z M 268.382812 231.398438 " fill-opacity="1" fill-rule="nonzero"/></g><path fill="#ffb74c" d="M 111.050781 210.90625 C 96.125 196.628906 82.675781 171.070312 81.386719 154.527344 C 80.460938 142.671875 84.089844 129.246094 90.539062 120.675781 C 96.632812 112.578125 102.660156 107.96875 111.277344 104.8125 C 118.179688 102.285156 125.164062 101.605469 132.585938 102.738281 C 142.488281 104.25 149.078125 106.859375 157.441406 112.585938 C 160.628906 114.769531 162.320312 115.5625 163.085938 115.226562 C 163.683594 114.960938 165.585938 113.355469 167.3125 111.65625 C 182.453125 96.746094 204.445312 91.3125 220.683594 98.480469 C 225.085938 100.425781 232.660156 105.894531 236.1875 109.679688 C 239.273438 112.988281 242.75 119.027344 245.667969 126.148438 C 247.5 130.617188 247.730469 131.84375 248.414062 140.5625 C 249.128906 149.652344 249.09375 150.414062 247.699219 156.9375 C 246.359375 163.222656 240.597656 179.679688 239.949219 179.085938 C 239.796875 178.945312 240.402344 176.226562 241.296875 173.042969 C 242.195312 169.859375 243.226562 165.699219 243.597656 163.789062 C 244.464844 159.3125 244.554688 144.660156 243.742188 139.726562 C 241.792969 127.855469 235.679688 116.65625 227.675781 110.292969 C 222.578125 106.242188 221.675781 105.792969 215.136719 104.0625 C 207.183594 101.957031 197.652344 102.242188 189.847656 104.824219 C 182.054688 107.398438 173.511719 113.238281 167.960938 119.785156 L 163.679688 124.832031 L 159.246094 121.425781 C 149.199219 113.699219 143.019531 110.8125 134.015625 109.640625 C 122.355469 108.121094 111.175781 110.691406 102.976562 116.78125 C 99.15625 119.617188 92.710938 127.332031 91.042969 131.058594 C 90.328125 132.664062 89.066406 136.949219 88.246094 140.582031 C 86.976562 146.183594 86.820312 148.085938 87.199219 153.105469 C 88.003906 163.738281 91.179688 175.472656 95.878906 185.183594 C 98.925781 191.472656 107.644531 205.28125 111.042969 209.195312 C 112.898438 211.339844 114.316406 213.222656 114.1875 213.386719 C 114.058594 213.550781 112.648438 212.433594 111.050781 210.90625 Z M 111.050781 210.90625 " fill-opacity="0.984" fill-rule="nonzero"/><g clip-path="url(#91635cd98e)"><path stroke-linecap="butt" transform="matrix(0.853317, 0, 0, 0.853317, 75.382602, -8.440606)" fill="none" stroke-linejoin="miter" d="M 41.799445 257.052002 C 24.307961 240.320421 8.546857 210.368372 7.036208 190.981711 C 5.951288 177.088318 10.203993 161.354681 17.761816 151.311154 C 24.903065 141.821532 31.966493 136.419818 42.064953 132.721017 C 50.153791 129.759229 58.338762 128.962705 67.036438 130.290245 C 78.640968 132.061824 86.363589 135.119744 96.164496 141.830688 C 99.899919 144.389635 101.882073 145.318913 102.779307 144.925229 C 103.479699 144.613944 105.709051 142.732499 107.732405 140.741189 C 125.475663 123.268017 151.24825 116.900402 170.277849 125.300526 C 175.436944 127.580233 184.313151 133.989046 188.446835 138.424861 C 192.063237 142.302193 196.137412 149.379355 199.556972 157.724546 C 201.703924 162.961462 201.97401 164.398867 202.775112 174.616347 C 203.612835 185.268711 203.571636 186.161368 201.937388 193.806167 C 200.367229 201.171725 193.615086 220.457676 192.855184 219.761862 C 192.676652 219.597064 193.3862 216.410968 194.434499 212.680123 C 195.487375 208.949278 196.695894 204.074002 197.130778 201.835495 C 198.147033 196.589423 198.25232 179.41838 197.300154 173.636714 C 195.015869 159.725011 187.851731 146.600676 178.471975 139.143564 C 172.498045 134.396464 171.44059 133.870025 163.77748 131.842094 C 154.457234 129.3747 143.287587 129.708874 134.141295 132.73475 C 125.008735 135.75147 114.997253 142.595168 108.492307 150.267433 L 103.475121 156.181853 L 98.279404 152.190077 C 86.505498 143.135339 79.263539 139.752401 68.711885 138.379084 C 55.047378 136.598349 41.945932 139.610491 32.337289 146.747163 C 27.860275 150.070591 20.30703 159.111596 18.352342 163.478745 C 17.514619 165.360189 16.036014 170.381953 15.074692 174.639236 C 13.586931 181.203692 13.403822 183.433044 13.847862 189.315419 C 14.790873 201.775984 18.512562 215.527467 24.019565 226.907689 C 27.590189 234.277825 37.807669 250.46008 41.790289 255.046959 C 43.964708 257.56013 45.626422 259.766593 45.475357 259.958857 C 45.324292 260.151122 43.671734 258.841893 41.799445 257.052002 Z M 41.799445 257.052002 " stroke="#000000" stroke-width="4.8" stroke-opacity="0.005" stroke-miterlimit="4"/></g><g clip-path="url(#fb442de241)"><path fill="#ffb74c" d="M 136.6875 188.363281 C 136.878906 188.34375 137.070312 188.328125 137.261719 188.316406 C 139.351562 188.039062 141.191406 187.023438 142.597656 185.460938 C 143.738281 184.21875 144.488281 182.714844 144.917969 180.949219 C 145.28125 179.570312 145.347656 178.027344 145.117188 176.503906 C 144.773438 173.457031 143.578125 170.585938 141.535156 168.054688 C 140.894531 167.25 140.15625 166.445312 139.324219 165.746094 C 137.464844 164.167969 135.558594 163.265625 133.5 162.769531 C 132.136719 162.5 130.875 162.40625 129.550781 162.613281 C 127.464844 162.980469 125.710938 163.898438 124.300781 165.449219 C 123.164062 166.707031 122.339844 168.402344 122.011719 170.257812 C 121.800781 171.238281 121.695312 172.203125 121.773438 173.164062 L 121.792969 173.449219 C 121.820312 173.738281 121.839844 174.023438 121.871094 174.3125 L 121.886719 174.589844 C 122.164062 176.785156 122.914062 178.832031 124.035156 180.757812 C 124.925781 182.222656 126.007812 183.574219 127.253906 184.722656 C 129.015625 186.304688 130.929688 187.398438 132.992188 187.894531 C 134.285156 188.363281 135.539062 188.449219 136.6875 188.363281 " fill-opacity="1" fill-rule="nonzero"/></g><g clip-path="url(#ad8e84b972)"><path fill="#ffb74c" d="M 139.867188 159.070312 C 140.445312 161.371094 141.402344 163.382812 142.648438 165.105469 C 143.890625 166.832031 145.234375 168.074219 146.863281 169.03125 C 148.203125 169.894531 149.640625 170.375 151.171875 170.46875 L 151.9375 170.46875 C 153.472656 170.46875 154.910156 170.085938 156.152344 169.226562 C 157.398438 168.554688 158.546875 167.5 159.507812 166.253906 C 160.847656 164.53125 161.710938 162.425781 162.09375 159.933594 C 162.1875 158.878906 162.285156 157.824219 162.285156 156.675781 C 162.285156 155.8125 162.1875 154.953125 162.09375 154.089844 C 161.902344 152.558594 161.519531 151.121094 160.945312 149.683594 C 159.984375 147.289062 158.644531 145.277344 156.921875 143.742188 C 155.675781 142.59375 154.332031 141.730469 152.898438 141.253906 C 151.078125 140.582031 149.257812 140.488281 147.4375 140.964844 C 145.710938 141.347656 144.179688 142.304688 142.839844 143.742188 C 141.6875 144.988281 140.921875 146.332031 140.25 147.957031 C 139.582031 149.875 139.199219 151.886719 139.199219 154.183594 C 139.199219 154.566406 139.292969 154.953125 139.292969 155.527344 C 139.390625 156.675781 139.582031 157.921875 139.867188 159.070312 " fill-opacity="1" fill-rule="nonzero"/></g><g clip-path="url(#b0a282ef8a)"><path fill="#ffb74c" d="M 167.074219 163.574219 C 167.746094 165.488281 168.703125 167.023438 170.042969 168.265625 C 171.769531 169.894531 173.78125 170.855469 176.078125 170.949219 L 176.652344 170.949219 C 177.804688 170.949219 178.855469 170.660156 180.007812 170.660156 C 181.636719 169.992188 183.074219 169.03125 184.507812 167.691406 C 185.945312 166.253906 187.09375 164.628906 187.957031 162.808594 C 189.203125 160.21875 189.875 157.539062 189.96875 154.664062 C 189.96875 153.035156 189.875 151.40625 189.492188 149.96875 C 189.011719 147.957031 188.339844 146.332031 187.289062 144.894531 C 185.5625 142.5 183.261719 141.15625 180.582031 140.773438 C 180.484375 140.773438 180.484375 140.773438 180.390625 140.773438 L 178.1875 140.773438 C 176.941406 140.964844 175.601562 141.347656 174.449219 142.019531 C 172.917969 142.882812 171.480469 144.128906 170.234375 145.660156 C 168.894531 147.289062 167.9375 149.203125 167.171875 151.3125 C 166.5 153.226562 166.210938 155.238281 166.117188 157.25 C 166.117188 158.113281 166.117188 158.976562 166.210938 159.835938 C 166.402344 161.179688 166.691406 162.425781 167.074219 163.574219 " fill-opacity="1" fill-rule="nonzero"/></g><g clip-path="url(#bcea49b79a)"><path fill="#ffb74c" d="M 191.203125 195.953125 C 189.960938 194.132812 188.425781 192.40625 186.605469 190.875 C 185.363281 189.726562 184.117188 188.480469 183.0625 187.140625 C 181.914062 185.703125 180.859375 184.167969 179.996094 182.828125 L 179.328125 181.773438 C 178.65625 180.71875 177.984375 179.761719 177.316406 178.707031 C 176.261719 177.175781 175.304688 175.929688 174.25 174.972656 C 172.429688 173.25 170.320312 172.097656 167.925781 171.523438 C 166.394531 171.140625 164.765625 171.046875 163.234375 171.046875 C 161.796875 171.046875 160.359375 171.332031 159.019531 171.90625 C 157.390625 172.578125 155.953125 173.632812 154.421875 175.066406 C 153.558594 175.929688 152.601562 176.984375 151.640625 178.230469 C 150.683594 179.476562 149.820312 180.71875 148.960938 181.964844 L 148.480469 182.730469 C 147.332031 184.265625 146.179688 185.988281 144.839844 187.523438 C 143.691406 188.863281 142.636719 189.917969 141.582031 190.875 C 140.242188 192.023438 138.902344 193.367188 137.847656 194.800781 C 136.316406 196.8125 135.164062 199.015625 134.398438 201.21875 C 133.921875 202.753906 133.632812 204.285156 133.535156 205.820312 C 133.441406 207.160156 133.535156 208.597656 133.824219 209.839844 C 134.589844 213.386719 136.410156 216.261719 139.378906 218.367188 C 141.105469 219.613281 143.019531 220.378906 145.222656 220.570312 C 145.511719 220.667969 145.703125 220.667969 145.988281 220.667969 L 147.425781 220.667969 C 148.289062 220.667969 149.152344 220.570312 149.820312 220.476562 C 151.738281 220.089844 153.652344 219.613281 155.378906 219.132812 L 155.472656 219.132812 C 157.101562 218.75 158.730469 218.273438 160.359375 217.984375 C 161.03125 217.886719 161.890625 217.695312 162.753906 217.695312 C 163.902344 217.695312 164.957031 217.695312 165.914062 217.792969 C 167.257812 217.984375 168.789062 218.273438 170.417969 218.65625 C 171.183594 218.847656 172.046875 219.132812 172.8125 219.324219 C 173.867188 219.613281 175.015625 219.902344 176.164062 220.1875 C 177.316406 220.476562 178.558594 220.761719 179.902344 220.761719 L 182.199219 220.761719 C 182.390625 220.761719 182.488281 220.667969 182.679688 220.378906 C 183.253906 220.378906 183.925781 220.285156 184.5 220.089844 C 186.03125 219.707031 187.566406 219.039062 189 217.984375 C 190.917969 216.644531 192.449219 214.917969 193.410156 212.90625 C 194.460938 210.703125 194.941406 208.40625 194.84375 205.820312 C 194.75 204.382812 194.460938 202.753906 193.886719 201.21875 C 193.3125 199.398438 192.449219 197.675781 191.203125 195.953125 " fill-opacity="1" fill-rule="nonzero"/></g><g clip-path="url(#6554aaeb5c)"><path fill="#ffb74c" d="M 207.960938 170.257812 C 207.632812 168.402344 206.808594 166.707031 205.660156 165.449219 C 204.253906 163.898438 202.507812 162.980469 200.421875 162.613281 C 199.089844 162.40625 197.832031 162.5 196.464844 162.769531 C 194.40625 163.265625 192.507812 164.167969 190.648438 165.746094 C 189.816406 166.445312 189.078125 167.25 188.4375 168.054688 C 186.394531 170.585938 185.199219 173.457031 184.84375 176.503906 C 184.625 178.027344 184.691406 179.570312 185.054688 180.949219 C 185.484375 182.714844 186.222656 184.21875 187.375 185.460938 C 188.78125 187.023438 190.621094 188.039062 192.707031 188.316406 C 192.902344 188.328125 193.09375 188.34375 193.285156 188.363281 C 194.433594 188.449219 195.6875 188.363281 196.972656 187.894531 C 199.03125 187.398438 200.949219 186.304688 202.71875 184.722656 C 203.964844 183.574219 205.039062 182.222656 205.929688 180.757812 C 207.050781 178.832031 207.796875 176.785156 208.074219 174.589844 L 208.101562 174.3125 C 208.121094 174.023438 208.152344 173.738281 208.171875 173.449219 L 208.199219 173.164062 C 208.277344 172.203125 208.160156 171.238281 207.960938 170.257812 " fill-opacity="1" fill-rule="nonzero"/></g><g clip-path="url(#7e9a804441)"><g clip-path="url(#cf8db9df66)"><path fill="#95cb7e" d="M 50.835938 155.402344 L 61.097656 155.402344 L 61.097656 165.660156 L 50.835938 165.660156 Z M 50.835938 155.402344 " fill-opacity="1" fill-rule="nonzero"/></g></g><g fill="#ffb74c" fill-opacity="1"><g transform="translate(74.004897, 325.965186)"><g><path d="M 11.015625 -35.046875 L 20.40625 -32.546875 C 23.226562 -31.796875 25 -30.34375 25.71875 -28.1875 C 26.445312 -26.03125 26.34375 -23.191406 25.40625 -19.671875 C 24.46875 -16.148438 23.21875 -13.640625 21.65625 -12.140625 C 20.101562 -10.640625 17.9375 -10.257812 15.15625 -11 L 12.28125 -11.765625 L 8.546875 2.28125 L 1.5625 0.421875 Z M 14.390625 -18.03125 C 15.242188 -17.800781 15.910156 -17.789062 16.390625 -18 C 16.867188 -18.21875 17.253906 -18.609375 17.546875 -19.171875 C 17.835938 -19.734375 18.128906 -20.566406 18.421875 -21.671875 C 18.816406 -23.160156 18.9375 -24.273438 18.78125 -25.015625 C 18.625 -25.765625 18.050781 -26.269531 17.0625 -26.53125 L 16.28125 -26.734375 L 13.984375 -18.140625 Z M 14.390625 -18.03125 "/></g></g></g><g fill="#ffb74c" fill-opacity="1"><g transform="translate(99.944224, 332.596371)"><g><path d="M 10.03125 2.125 C 6.863281 1.5625 4.742188 0.289062 3.671875 -1.6875 C 2.609375 -3.664062 2.378906 -6.378906 2.984375 -9.828125 L 5.171875 -22.203125 C 5.660156 -25.035156 6.847656 -27.050781 8.734375 -28.25 C 10.628906 -29.445312 13.039062 -29.789062 15.96875 -29.28125 C 21.882812 -28.238281 24.332031 -24.816406 23.3125 -19.015625 L 22.90625 -16.78125 C 22.519531 -14.539062 22.171875 -12.722656 21.859375 -11.328125 L 11.1875 -13.203125 L 10.140625 -7.234375 C 9.953125 -6.171875 9.910156 -5.316406 10.015625 -4.671875 C 10.128906 -4.035156 10.554688 -3.648438 11.296875 -3.515625 C 11.847656 -3.421875 12.273438 -3.519531 12.578125 -3.8125 C 12.878906 -4.113281 13.085938 -4.472656 13.203125 -4.890625 C 13.316406 -5.316406 13.453125 -5.953125 13.609375 -6.796875 L 14.125 -9.78125 L 21.453125 -8.5 L 21.140625 -6.734375 C 20.515625 -3.140625 19.351562 -0.617188 17.65625 0.828125 C 15.96875 2.285156 13.425781 2.71875 10.03125 2.125 Z M 15.265625 -16.265625 L 15.96875 -20.21875 C 16.351562 -22.4375 16 -23.644531 14.90625 -23.84375 C 13.675781 -24.0625 12.867188 -23.0625 12.484375 -20.84375 L 11.78125 -16.890625 Z M 15.265625 -16.265625 "/></g></g></g><g fill="#ffb74c" fill-opacity="1"><g transform="translate(126.844606, 336.943578)"><g><path d="M 7.875 1.140625 C 5.914062 0.941406 4.609375 0.394531 3.953125 -0.5 C 3.304688 -1.394531 3.070312 -2.75 3.25 -4.5625 L 5.203125 -23.984375 L 3.125 -24.203125 L 3.6875 -29.859375 L 5.765625 -29.640625 L 6.4375 -36.234375 L 13.65625 -35.515625 L 12.984375 -28.921875 L 15.109375 -28.703125 L 14.546875 -23.046875 L 12.421875 -23.265625 L 10.671875 -5.796875 C 10.609375 -5.253906 10.609375 -4.847656 10.671875 -4.578125 C 10.742188 -4.316406 10.960938 -4.171875 11.328125 -4.140625 C 11.609375 -4.109375 11.875 -4.09375 12.125 -4.09375 C 12.382812 -4.101562 12.554688 -4.101562 12.640625 -4.09375 L 12.125 1 C 11.6875 1.070312 11.054688 1.128906 10.234375 1.171875 C 9.421875 1.222656 8.632812 1.210938 7.875 1.140625 Z M 7.875 1.140625 "/></g></g></g><g fill="#ffb74c" fill-opacity="1"><g transform="translate(146.183172, 338.785696)"><g><path d="M 10.0625 0.609375 C 3.882812 0.441406 0.882812 -2.773438 1.0625 -9.046875 L 1.171875 -11.515625 L 8.640625 -11.3125 L 8.59375 -7.640625 C 8.570312 -6.898438 8.695312 -6.332031 8.96875 -5.9375 C 9.25 -5.539062 9.710938 -5.332031 10.359375 -5.3125 C 11.359375 -5.289062 11.878906 -6.09375 11.921875 -7.71875 C 11.953125 -8.914062 11.742188 -9.859375 11.296875 -10.546875 C 10.847656 -11.242188 10.113281 -11.992188 9.09375 -12.796875 L 5.21875 -15.984375 C 3.882812 -17.066406 2.929688 -18.175781 2.359375 -19.3125 C 1.785156 -20.457031 1.53125 -22.050781 1.59375 -24.09375 C 1.632812 -25.6875 2.085938 -27.035156 2.953125 -28.140625 C 3.828125 -29.242188 4.96875 -30.0625 6.375 -30.59375 C 7.789062 -31.125 9.351562 -31.363281 11.0625 -31.3125 C 17.132812 -31.15625 20.085938 -28.0625 19.921875 -22.03125 L 19.90625 -21.421875 L 12.171875 -21.625 L 12.203125 -22.828125 C 12.222656 -23.566406 12.117188 -24.203125 11.890625 -24.734375 C 11.660156 -25.265625 11.265625 -25.539062 10.703125 -25.5625 C 10.191406 -25.570312 9.796875 -25.429688 9.515625 -25.140625 C 9.234375 -24.847656 9.085938 -24.441406 9.078125 -23.921875 C 9.046875 -22.785156 9.457031 -21.894531 10.3125 -21.25 L 14.84375 -17.765625 C 16.457031 -16.492188 17.6875 -15.125 18.53125 -13.65625 C 19.382812 -12.195312 19.78125 -10.375 19.71875 -8.1875 C 19.644531 -5.28125 18.757812 -3.066406 17.0625 -1.546875 C 15.363281 -0.0234375 13.03125 0.691406 10.0625 0.609375 Z M 10.0625 0.609375 "/></g></g></g><g fill="#ffb74c" fill-opacity="1"><g transform="translate(172.767417, 339.112303)"><g><path d="M 1.15625 -0.046875 L 0.90625 -6.28125 L 8.375 -6.578125 L 8.625 -0.34375 Z M 1.15625 -0.046875 "/></g></g></g><g fill="#95cb7e" fill-opacity="1"><g transform="translate(188.872544, 338.43599)"><g><path d="M -1.953125 -31.25 L 5.484375 -32.0625 L 5.921875 -28.109375 C 6.078125 -29.421875 6.492188 -30.515625 7.171875 -31.390625 C 7.859375 -32.273438 8.84375 -32.785156 10.125 -32.921875 C 12.207031 -33.148438 13.820312 -32.675781 14.96875 -31.5 C 16.113281 -30.320312 16.816406 -28.550781 17.078125 -26.1875 L 19.734375 -2.1875 L 12.4375 -1.375 L 9.875 -24.59375 C 9.789062 -25.28125 9.585938 -25.847656 9.265625 -26.296875 C 8.941406 -26.742188 8.5 -26.9375 7.9375 -26.875 C 7.175781 -26.789062 6.710938 -26.390625 6.546875 -25.671875 C 6.390625 -24.953125 6.375 -24.007812 6.5 -22.84375 L 8.921875 -0.984375 L 1.484375 -0.171875 Z M -1.953125 -31.25 "/></g></g></g><g fill="#95cb7e" fill-opacity="1"><g transform="translate(216.62658, 335.060386)"><g><path d="M 10.109375 -1.671875 C 6.953125 -1.035156 4.515625 -1.445312 2.796875 -2.90625 C 1.085938 -4.375 -0.113281 -6.820312 -0.8125 -10.25 L -3.28125 -22.5625 C -3.84375 -25.382812 -3.460938 -27.695312 -2.140625 -29.5 C -0.816406 -31.300781 1.300781 -32.492188 4.21875 -33.078125 C 10.101562 -34.265625 13.625 -31.96875 14.78125 -26.1875 L 15.234375 -23.96875 C 15.679688 -21.75 16.015625 -19.925781 16.234375 -18.5 L 5.609375 -16.375 L 6.796875 -10.4375 C 7.003906 -9.375 7.28125 -8.5625 7.625 -8 C 7.96875 -7.4375 8.507812 -7.226562 9.25 -7.375 C 9.800781 -7.488281 10.160156 -7.738281 10.328125 -8.125 C 10.503906 -8.507812 10.566406 -8.921875 10.515625 -9.359375 C 10.472656 -9.804688 10.367188 -10.453125 10.203125 -11.296875 L 9.609375 -14.265625 L 16.890625 -15.734375 L 17.234375 -13.96875 C 17.953125 -10.394531 17.789062 -7.617188 16.75 -5.640625 C 15.707031 -3.671875 13.492188 -2.347656 10.109375 -1.671875 Z M 8.3125 -20.71875 L 7.515625 -24.65625 C 7.078125 -26.851562 6.3125 -27.84375 5.21875 -27.625 C 3.988281 -27.375 3.59375 -26.148438 4.03125 -23.953125 L 4.828125 -20.015625 Z M 8.3125 -20.71875 "/></g></g></g><g fill="#95cb7e" fill-opacity="1"><g transform="translate(243.264966, 329.322577)"><g><path d="M 7.75 -1.8125 C 5.851562 -1.28125 4.4375 -1.3125 3.5 -1.90625 C 2.5625 -2.507812 1.847656 -3.691406 1.359375 -5.453125 L -3.890625 -24.234375 L -5.90625 -23.671875 L -7.4375 -29.15625 L -5.421875 -29.71875 L -7.203125 -36.09375 L -0.21875 -38.046875 L 1.5625 -31.671875 L 3.625 -32.234375 L 5.15625 -26.75 L 3.09375 -26.1875 L 7.8125 -9.28125 C 7.957031 -8.757812 8.109375 -8.382812 8.265625 -8.15625 C 8.429688 -7.9375 8.6875 -7.878906 9.03125 -7.984375 C 9.3125 -8.054688 9.570312 -8.140625 9.8125 -8.234375 C 10.050781 -8.328125 10.207031 -8.382812 10.28125 -8.40625 L 11.65625 -3.46875 C 11.28125 -3.25 10.71875 -2.96875 9.96875 -2.625 C 9.226562 -2.289062 8.488281 -2.019531 7.75 -1.8125 Z M 7.75 -1.8125 "/></g></g></g></svg>