<svg xmlns="http://www.w3.org/2000/svg" xmlns:xlink="http://www.w3.org/1999/xlink" width="1920" zoomAndPan="magnify" viewBox="0 0 1440 1439.999935" height="1920" preserveAspectRatio="xMidYMid meet" version="1.0"><defs><clipPath id="be6fa91fc8"><path d="M 35.34375 17 L 1404.84375 17 L 1404.84375 1430 L 35.34375 1430 Z M 35.34375 17 " clip-rule="nonzero"/></clipPath><clipPath id="557fceb68c"><path d="M 361 512 L 1079 512 L 1079 1151.28125 L 361 1151.28125 Z M 361 512 " clip-rule="nonzero"/></clipPath></defs><g clip-path="url(#be6fa91fc8)"><path fill="#49ff2b" d="M 1404.644531 534.085938 C 1404.644531 473.839844 1374.523438 417.539062 1324.414062 384.035156 C 1205.332031 304.648438 949.996094 134.613281 819.933594 47.90625 C 759.410156 7.648438 680.582031 7.648438 620.058594 47.90625 C 489.996094 134.613281 234.660156 304.648438 115.578125 384.035156 C 65.46875 417.539062 35.34375 473.839844 35.34375 534.085938 C 35.34375 690.890625 35.34375 1048.417969 35.34375 1249.703125 C 35.34375 1297.5625 54.207031 1343.449219 87.988281 1377.230469 C 121.769531 1411.011719 167.660156 1429.875 215.515625 1429.875 C 464.941406 1429.875 974.769531 1429.875 1224.476562 1429.875 C 1272.332031 1429.875 1317.9375 1411.011719 1352.003906 1377.230469 C 1385.785156 1343.449219 1404.644531 1297.5625 1404.644531 1249.703125 C 1404.644531 1048.417969 1404.644531 690.890625 1404.644531 534.085938 Z M 1332.578125 534.085938 L 1332.578125 1249.703125 C 1332.578125 1278.417969 1321.316406 1305.726562 1301.046875 1326.277344 C 1280.496094 1346.546875 1253.191406 1357.804688 1224.476562 1357.804688 L 215.515625 1357.804688 C 186.800781 1357.804688 159.496094 1346.546875 138.945312 1326.277344 C 118.675781 1305.726562 107.414062 1278.417969 107.414062 1249.703125 C 107.414062 1048.417969 107.414062 690.890625 107.414062 534.085938 C 107.414062 498.050781 125.429688 464.269531 155.554688 444 L 660.03125 107.867188 C 696.347656 83.65625 743.644531 83.65625 779.960938 107.867188 C 910.019531 194.574219 1165.355469 364.613281 1284.4375 444 C 1314.5625 464.269531 1332.578125 498.050781 1332.578125 534.085938 " fill-opacity="1" fill-rule="evenodd"/></g><g clip-path="url(#557fceb68c)"><path fill="#49ff2b" d="M 1059.679688 640.140625 C 1026.425781 560.464844 951.78125 507.214844 862.742188 513.230469 C 791.539062 518.046875 735.800781 571.679688 719.953125 637.230469 C 704.105469 571.679688 648.367188 518.046875 577.164062 513.230469 C 488.125 507.214844 413.480469 560.464844 380.226562 640.140625 C 341.488281 733.011719 365 835.59375 429.660156 911.796875 C 478.613281 969.457031 551.121094 997.757812 610.191406 1043.679688 C 651.488281 1075.828125 690.59375 1107.976562 719.953125 1151.273438 C 749.3125 1107.976562 788.417969 1075.828125 829.714844 1043.679688 C 888.785156 997.757812 961.292969 969.457031 1010.246094 911.796875 C 1074.90625 835.59375 1098.417969 733.011719 1059.679688 640.140625 Z M 849.636719 627.5 C 850.234375 625.425781 850.960938 623.386719 851.792969 621.410156 C 859.125 603.992188 873.097656 586.628906 890.058594 577.476562 C 904.171875 569.863281 924.164062 565.40625 935.265625 579.640625 C 952.742188 602.054688 937.714844 646.589844 918.484375 664.066406 C 907.394531 674.148438 889.117188 677.980469 874.832031 674.609375 C 865.636719 672.441406 857.191406 666.929688 852.378906 658.964844 C 846.789062 649.707031 846.582031 638.113281 849.636719 627.5 Z M 745.648438 661.269531 C 749.394531 650.546875 754.796875 640.410156 761.605469 631.324219 C 767.511719 623.449219 774.753906 616.175781 783.910156 612.566406 C 792.246094 609.28125 802.71875 609.359375 809.984375 615.089844 C 814.316406 618.503906 817.09375 623.582031 818.679688 628.867188 C 825.292969 650.902344 824.339844 681.761719 809.941406 700.5625 C 809.921875 700.582031 809.90625 700.605469 809.890625 700.628906 C 794.515625 720.621094 756.664062 716.453125 745.128906 694.003906 C 739.996094 684.023438 741.953125 671.871094 745.648438 661.269531 Z M 905.925781 906.644531 C 891.207031 917.050781 870.523438 918.585938 854.230469 910.933594 C 844.363281 906.296875 836.636719 899.144531 829.609375 891.171875 C 821.195312 881.632812 811.550781 873.375 800.953125 866.578125 C 790.355469 859.785156 778.828125 854.464844 766.648438 850.796875 C 756.46875 847.734375 746.75 843.695312 738.417969 836.660156 C 724.667969 825.046875 717.433594 805.605469 720.753906 787.890625 C 723.816406 771.53125 735.597656 757.066406 751 750.761719 C 775.164062 740.863281 802.273438 748.175781 825.765625 734.710938 C 847.257812 722.390625 870.835938 701.460938 896.351562 717.824219 C 921.867188 734.1875 912.679688 764.34375 910.449219 789.019531 C 908.011719 815.984375 925.96875 837.574219 927.054688 863.664062 C 927.746094 880.296875 919.515625 897.035156 905.925781 906.644531 Z M 940.71875 678.722656 C 948.839844 654.039062 983.375 622.160156 1010.964844 628.980469 C 1028.492188 633.3125 1032.570312 653.386719 1031.375 669.375 C 1029.933594 688.59375 1019.773438 708.433594 1006.859375 722.230469 C 1005.394531 723.796875 1003.828125 725.289062 1002.179688 726.679688 C 993.734375 733.800781 983.0625 738.335938 972.332031 737.003906 C 963.09375 735.859375 954.617188 730.394531 948.890625 722.882812 C 939.988281 711.214844 936.03125 692.960938 940.71875 678.722656 Z M 1028.5625 811.277344 C 1022.515625 820.886719 1014.984375 829.5625 1006.3125 836.894531 C 997.738281 844.140625 987.09375 850.316406 975.933594 849.101562 C 950.84375 846.363281 933.402344 812.515625 946.566406 791 C 946.582031 790.976562 946.59375 790.953125 946.609375 790.929688 C 959.007812 770.753906 987.480469 758.820312 1010.421875 757.105469 C 1015.925781 756.691406 1021.660156 757.46875 1026.402344 760.292969 C 1034.351562 765.023438 1038.175781 774.777344 1038.089844 783.734375 C 1038 793.574219 1033.800781 802.941406 1028.5625 811.277344 Z M 1028.5625 811.277344 " fill-opacity="1" fill-rule="nonzero"/></g></svg>