<svg xmlns="http://www.w3.org/2000/svg" xmlns:xlink="http://www.w3.org/1999/xlink" width="437" zoomAndPan="magnify" viewBox="0 0 327.75 125.999998" height="168" preserveAspectRatio="xMidYMid meet" version="1.0"><defs><g/><clipPath id="9c7bd4ddd3"><path d="M 0 0.046875 L 132.242188 0.046875 L 132.242188 107.25 L 0 107.25 Z M 0 0.046875 " clip-rule="nonzero"/></clipPath><clipPath id="d1a3d75486"><path d="M 26.878906 23 L 105.910156 23 L 105.910156 96 L 26.878906 96 Z M 26.878906 23 " clip-rule="nonzero"/></clipPath><clipPath id="7eb5fbdbee"><path d="M 47.179688 63 L 58 63 L 58 75 L 47.179688 75 Z M 47.179688 63 " clip-rule="nonzero"/></clipPath><clipPath id="659d207156"><path d="M 54 53.625 L 66 53.625 L 66 67 L 54 67 Z M 54 53.625 " clip-rule="nonzero"/></clipPath><clipPath id="6711f4031d"><path d="M 66 53.625 L 78 53.625 L 78 68 L 66 68 Z M 66 53.625 " clip-rule="nonzero"/></clipPath><clipPath id="5cba3e702f"><path d="M 52.34375 67 L 79.394531 67 L 79.394531 88.839844 L 52.34375 88.839844 Z M 52.34375 67 " clip-rule="nonzero"/></clipPath><clipPath id="67fb88d44b"><path d="M 74 63 L 85.523438 63 L 85.523438 75 L 74 75 Z M 74 63 " clip-rule="nonzero"/></clipPath></defs><g fill="#ffb74c" fill-opacity="1"><g transform="translate(141.139105, 99.289831)"><g><path d="M 1.515625 -34.40625 L 10.609375 -34.40625 C 13.367188 -34.40625 15.332031 -33.515625 16.5 -31.734375 C 17.675781 -29.960938 18.265625 -27.367188 18.265625 -23.953125 C 18.265625 -20.535156 17.742188 -17.957031 16.703125 -16.21875 C 15.660156 -14.488281 13.789062 -13.625 11.09375 -13.625 L 8.296875 -13.625 L 8.296875 0 L 1.515625 0 Z M 8.6875 -19.828125 C 9.519531 -19.828125 10.128906 -19.976562 10.515625 -20.28125 C 10.898438 -20.59375 11.148438 -21.035156 11.265625 -21.609375 C 11.390625 -22.179688 11.453125 -23.003906 11.453125 -24.078125 C 11.453125 -25.515625 11.289062 -26.550781 10.96875 -27.1875 C 10.65625 -27.832031 10.015625 -28.15625 9.046875 -28.15625 L 8.296875 -28.15625 L 8.296875 -19.828125 Z M 8.6875 -19.828125 "/></g></g></g><g fill="#ffb74c" fill-opacity="1"><g transform="translate(164.889114, 99.289831)"><g><path d="M 9.609375 0.328125 C 6.597656 0.328125 4.4375 -0.5 3.125 -2.15625 C 1.8125 -3.8125 1.15625 -6.285156 1.15625 -9.578125 L 1.15625 -21.359375 C 1.15625 -24.054688 1.929688 -26.109375 3.484375 -27.515625 C 5.035156 -28.929688 7.195312 -29.640625 9.96875 -29.640625 C 15.601562 -29.640625 18.421875 -26.878906 18.421875 -21.359375 L 18.421875 -19.234375 C 18.421875 -17.097656 18.394531 -15.359375 18.34375 -14.015625 L 8.171875 -14.015625 L 8.171875 -8.328125 C 8.171875 -7.316406 8.273438 -6.523438 8.484375 -5.953125 C 8.703125 -5.378906 9.160156 -5.09375 9.859375 -5.09375 C 10.390625 -5.09375 10.769531 -5.25 11 -5.5625 C 11.226562 -5.882812 11.359375 -6.253906 11.390625 -6.671875 C 11.429688 -7.085938 11.453125 -7.695312 11.453125 -8.5 L 11.453125 -11.34375 L 18.421875 -11.34375 L 18.421875 -9.65625 C 18.421875 -6.238281 17.757812 -3.71875 16.4375 -2.09375 C 15.125 -0.476562 12.847656 0.328125 9.609375 0.328125 Z M 11.453125 -17.5 L 11.453125 -21.265625 C 11.453125 -23.378906 10.929688 -24.4375 9.890625 -24.4375 C 8.710938 -24.4375 8.125 -23.378906 8.125 -21.265625 L 8.125 -17.5 Z M 11.453125 -17.5 "/></g></g></g><g fill="#ffb74c" fill-opacity="1"><g transform="translate(189.279881, 99.289831)"><g><path d="M 7.453125 0.328125 C 5.609375 0.328125 4.335938 -0.0546875 3.640625 -0.828125 C 2.953125 -1.609375 2.609375 -2.851562 2.609375 -4.5625 L 2.609375 -22.875 L 0.640625 -22.875 L 0.640625 -28.203125 L 2.609375 -28.203125 L 2.609375 -34.40625 L 9.421875 -34.40625 L 9.421875 -28.203125 L 11.421875 -28.203125 L 11.421875 -22.875 L 9.421875 -22.875 L 9.421875 -6.40625 C 9.421875 -5.90625 9.457031 -5.53125 9.53125 -5.28125 C 9.613281 -5.039062 9.828125 -4.921875 10.171875 -4.921875 C 10.441406 -4.921875 10.695312 -4.929688 10.9375 -4.953125 C 11.175781 -4.984375 11.335938 -5 11.421875 -5 L 11.421875 -0.203125 C 11.015625 -0.0976562 10.429688 0.015625 9.671875 0.140625 C 8.910156 0.265625 8.171875 0.328125 7.453125 0.328125 Z M 7.453125 0.328125 "/></g></g></g><g fill="#ffb74c" fill-opacity="1"><g transform="translate(206.341948, 99.289831)"><g><path d="M 9.453125 0.328125 C 3.660156 0.328125 0.765625 -2.613281 0.765625 -8.5 L 0.796875 -10.8125 L 7.8125 -10.8125 L 7.859375 -7.375 C 7.859375 -6.675781 7.988281 -6.144531 8.25 -5.78125 C 8.519531 -5.425781 8.960938 -5.25 9.578125 -5.25 C 10.515625 -5.25 10.984375 -6.007812 10.984375 -7.53125 C 10.984375 -8.65625 10.757812 -9.535156 10.3125 -10.171875 C 9.875 -10.816406 9.175781 -11.5 8.21875 -12.21875 L 4.484375 -15.109375 C 3.203125 -16.085938 2.28125 -17.101562 1.71875 -18.15625 C 1.15625 -19.21875 0.875 -20.710938 0.875 -22.640625 C 0.875 -24.128906 1.269531 -25.398438 2.0625 -26.453125 C 2.851562 -27.515625 3.898438 -28.3125 5.203125 -28.84375 C 6.515625 -29.375 7.972656 -29.640625 9.578125 -29.640625 C 15.265625 -29.640625 18.109375 -26.8125 18.109375 -21.15625 L 18.109375 -20.59375 L 10.859375 -20.59375 L 10.859375 -21.71875 C 10.859375 -22.40625 10.742188 -22.992188 10.515625 -23.484375 C 10.285156 -23.984375 9.90625 -24.234375 9.375 -24.234375 C 8.894531 -24.234375 8.523438 -24.09375 8.265625 -23.8125 C 8.015625 -23.53125 7.890625 -23.148438 7.890625 -22.671875 C 7.890625 -21.609375 8.304688 -20.78125 9.140625 -20.1875 L 13.46875 -17.03125 C 15.007812 -15.875 16.191406 -14.617188 17.015625 -13.265625 C 17.847656 -11.921875 18.265625 -10.222656 18.265625 -8.171875 C 18.265625 -5.453125 17.488281 -3.351562 15.9375 -1.875 C 14.394531 -0.40625 12.234375 0.328125 9.453125 0.328125 Z M 9.453125 0.328125 "/></g></g></g><g fill="#ffb74c" fill-opacity="1"><g transform="translate(230.212097, 99.289831)"><g><path d="M 1.078125 0 L 1.078125 -5.84375 L 8.09375 -5.84375 L 8.09375 0 Z M 1.078125 0 "/></g></g></g><g fill="#95cb7e" fill-opacity="1"><g transform="translate(244.232339, 99.289831)"><g><path d="M 1.40625 -29.328125 L 8.40625 -29.328125 L 8.40625 -25.59375 C 8.707031 -26.800781 9.21875 -27.773438 9.9375 -28.515625 C 10.65625 -29.265625 11.613281 -29.640625 12.8125 -29.640625 C 14.789062 -29.640625 16.253906 -29.03125 17.203125 -27.8125 C 18.148438 -26.601562 18.625 -24.878906 18.625 -22.640625 L 18.625 0 L 11.734375 0 L 11.734375 -21.921875 C 11.734375 -22.554688 11.609375 -23.097656 11.359375 -23.546875 C 11.109375 -24.003906 10.710938 -24.234375 10.171875 -24.234375 C 9.453125 -24.234375 8.976562 -23.90625 8.75 -23.25 C 8.519531 -22.601562 8.40625 -21.726562 8.40625 -20.625 L 8.40625 0 L 1.40625 0 Z M 1.40625 -29.328125 "/></g></g></g><g fill="#95cb7e" fill-opacity="1"><g transform="translate(269.06363, 99.289831)"><g><path d="M 9.609375 0.328125 C 6.597656 0.328125 4.4375 -0.5 3.125 -2.15625 C 1.8125 -3.8125 1.15625 -6.285156 1.15625 -9.578125 L 1.15625 -21.359375 C 1.15625 -24.054688 1.929688 -26.109375 3.484375 -27.515625 C 5.035156 -28.929688 7.195312 -29.640625 9.96875 -29.640625 C 15.601562 -29.640625 18.421875 -26.878906 18.421875 -21.359375 L 18.421875 -19.234375 C 18.421875 -17.097656 18.394531 -15.359375 18.34375 -14.015625 L 8.171875 -14.015625 L 8.171875 -8.328125 C 8.171875 -7.316406 8.273438 -6.523438 8.484375 -5.953125 C 8.703125 -5.378906 9.160156 -5.09375 9.859375 -5.09375 C 10.390625 -5.09375 10.769531 -5.25 11 -5.5625 C 11.226562 -5.882812 11.359375 -6.253906 11.390625 -6.671875 C 11.429688 -7.085938 11.453125 -7.695312 11.453125 -8.5 L 11.453125 -11.34375 L 18.421875 -11.34375 L 18.421875 -9.65625 C 18.421875 -6.238281 17.757812 -3.71875 16.4375 -2.09375 C 15.125 -0.476562 12.847656 0.328125 9.609375 0.328125 Z M 11.453125 -17.5 L 11.453125 -21.265625 C 11.453125 -23.378906 10.929688 -24.4375 9.890625 -24.4375 C 8.710938 -24.4375 8.125 -23.378906 8.125 -21.265625 L 8.125 -17.5 Z M 11.453125 -17.5 "/></g></g></g><g fill="#95cb7e" fill-opacity="1"><g transform="translate(293.454397, 99.289831)"><g><path d="M 7.453125 0.328125 C 5.609375 0.328125 4.335938 -0.0546875 3.640625 -0.828125 C 2.953125 -1.609375 2.609375 -2.851562 2.609375 -4.5625 L 2.609375 -22.875 L 0.640625 -22.875 L 0.640625 -28.203125 L 2.609375 -28.203125 L 2.609375 -34.40625 L 9.421875 -34.40625 L 9.421875 -28.203125 L 11.421875 -28.203125 L 11.421875 -22.875 L 9.421875 -22.875 L 9.421875 -6.40625 C 9.421875 -5.90625 9.457031 -5.53125 9.53125 -5.28125 C 9.613281 -5.039062 9.828125 -4.921875 10.171875 -4.921875 C 10.441406 -4.921875 10.695312 -4.929688 10.9375 -4.953125 C 11.175781 -4.984375 11.335938 -5 11.421875 -5 L 11.421875 -0.203125 C 11.015625 -0.0976562 10.429688 0.015625 9.671875 0.140625 C 8.910156 0.265625 8.171875 0.328125 7.453125 0.328125 Z M 7.453125 0.328125 "/></g></g></g><g clip-path="url(#9c7bd4ddd3)"><path fill="#95cb7e" d="M 131.695312 59.941406 L 76.324219 4.25 C 75.667969 3.582031 74.953125 2.988281 74.179688 2.464844 C 73.40625 1.941406 72.585938 1.5 71.726562 1.140625 C 70.863281 0.78125 69.976562 0.507812 69.058594 0.324219 C 68.144531 0.140625 67.21875 0.046875 66.285156 0.046875 C 65.351562 0.046875 64.425781 0.140625 63.511719 0.324219 C 62.59375 0.507812 61.707031 0.78125 60.84375 1.140625 C 59.980469 1.5 59.164062 1.941406 58.390625 2.464844 C 57.617188 2.988281 56.902344 3.582031 56.246094 4.25 L 0.632812 59.941406 C 0.441406 60.125 0.289062 60.335938 0.183594 60.582031 C 0.078125 60.824219 0.0273438 61.082031 0.0273438 61.347656 C 0.0273438 61.613281 0.078125 61.867188 0.183594 62.113281 C 0.289062 62.355469 0.441406 62.570312 0.632812 62.753906 C 0.816406 62.945312 1.03125 63.097656 1.273438 63.203125 C 1.519531 63.308594 1.773438 63.359375 2.039062 63.359375 C 2.304688 63.359375 2.5625 63.308594 2.804688 63.203125 C 3.050781 63.097656 3.261719 62.945312 3.445312 62.753906 L 59.015625 7.179688 C 59.488281 6.71875 60 6.304688 60.550781 5.941406 C 61.101562 5.574219 61.683594 5.269531 62.292969 5.019531 C 62.902344 4.769531 63.535156 4.578125 64.179688 4.453125 C 64.828125 4.324219 65.484375 4.261719 66.144531 4.261719 C 66.804688 4.261719 67.457031 4.324219 68.105469 4.453125 C 68.753906 4.578125 69.382812 4.769531 69.996094 5.019531 C 70.605469 5.269531 71.1875 5.574219 71.738281 5.941406 C 72.289062 6.304688 72.800781 6.71875 73.269531 7.179688 L 128.84375 62.753906 C 129.226562 63.148438 129.695312 63.351562 130.25 63.355469 C 130.8125 63.351562 131.296875 63.152344 131.695312 62.753906 C 131.878906 62.5625 132.019531 62.347656 132.117188 62.105469 C 132.21875 61.863281 132.269531 61.609375 132.269531 61.347656 C 132.269531 61.082031 132.21875 60.832031 132.117188 60.585938 C 132.019531 60.34375 131.878906 60.128906 131.695312 59.941406 Z M 107.761719 92.90625 C 107.761719 93.578125 107.699219 94.242188 107.566406 94.898438 C 107.4375 95.558594 107.242188 96.195312 106.988281 96.816406 C 106.730469 97.4375 106.417969 98.023438 106.046875 98.582031 C 105.671875 99.140625 105.25 99.65625 104.777344 100.132812 C 104.304688 100.609375 103.789062 101.03125 103.234375 101.40625 C 102.675781 101.78125 102.089844 102.097656 101.46875 102.355469 C 100.851562 102.613281 100.214844 102.808594 99.554688 102.941406 C 98.898438 103.074219 98.234375 103.144531 97.5625 103.144531 L 34.765625 103.144531 C 34.09375 103.144531 33.425781 103.082031 32.765625 102.949219 C 32.109375 102.816406 31.46875 102.625 30.847656 102.367188 C 30.226562 102.109375 29.636719 101.792969 29.074219 101.421875 C 28.515625 101.046875 28 100.621094 27.523438 100.148438 C 27.050781 99.671875 26.625 99.15625 26.25 98.59375 C 25.878906 98.035156 25.5625 97.445312 25.304688 96.824219 C 25.046875 96.203125 24.851562 95.5625 24.722656 94.90625 C 24.589844 94.246094 24.527344 93.578125 24.527344 92.90625 L 24.527344 64.480469 L 20.511719 64.480469 L 20.511719 92.945312 C 20.511719 93.882812 20.601562 94.808594 20.785156 95.726562 C 20.964844 96.644531 21.238281 97.539062 21.59375 98.402344 C 21.953125 99.265625 22.390625 100.089844 22.914062 100.867188 C 23.433594 101.644531 24.023438 102.363281 24.683594 103.027344 C 25.347656 103.6875 26.066406 104.277344 26.84375 104.800781 C 27.625 105.320312 28.445312 105.757812 29.308594 106.117188 C 30.175781 106.472656 31.066406 106.746094 31.984375 106.925781 C 32.902344 107.109375 33.828125 107.203125 34.765625 107.203125 L 97.5625 107.203125 C 98.5 107.199219 99.421875 107.105469 100.339844 106.921875 C 101.253906 106.734375 102.144531 106.464844 103.007812 106.105469 C 103.867188 105.746094 104.6875 105.304688 105.464844 104.785156 C 106.238281 104.265625 106.957031 103.671875 107.617188 103.011719 C 108.277344 102.351562 108.867188 101.632812 109.382812 100.855469 C 109.902344 100.078125 110.339844 99.257812 110.695312 98.394531 C 111.054688 97.53125 111.324219 96.640625 111.503906 95.722656 C 111.6875 94.808594 111.777344 93.882812 111.777344 92.945312 L 111.777344 64.480469 L 107.761719 64.480469 Z M 107.761719 92.90625 " fill-opacity="1" fill-rule="nonzero"/></g><path fill="#ffb74c" d="M 42.550781 84.566406 C 35.992188 78.292969 30.082031 67.0625 29.515625 59.796875 C 29.109375 54.585938 30.703125 48.6875 33.539062 44.917969 C 36.214844 41.359375 38.863281 39.335938 42.652344 37.949219 C 45.683594 36.839844 48.75 36.539062 52.015625 37.039062 C 56.363281 37.703125 59.261719 38.851562 62.933594 41.367188 C 64.335938 42.324219 65.078125 42.671875 65.414062 42.527344 C 65.679688 42.410156 66.515625 41.703125 67.273438 40.957031 C 73.925781 34.40625 83.589844 32.019531 90.722656 35.167969 C 92.65625 36.019531 95.984375 38.425781 97.535156 40.085938 C 98.890625 41.542969 100.417969 44.195312 101.703125 47.324219 C 102.507812 49.289062 102.609375 49.828125 102.910156 53.660156 C 103.222656 57.652344 103.207031 57.988281 102.59375 60.851562 C 102.003906 63.613281 99.472656 70.847656 99.1875 70.585938 C 99.121094 70.523438 99.390625 69.328125 99.78125 67.929688 C 100.175781 66.53125 100.628906 64.703125 100.792969 63.863281 C 101.171875 61.898438 101.210938 55.460938 100.855469 53.292969 C 100 48.074219 97.3125 43.15625 93.796875 40.359375 C 91.554688 38.578125 91.160156 38.378906 88.285156 37.621094 C 84.792969 36.695312 80.605469 36.820312 77.175781 37.953125 C 73.75 39.085938 69.996094 41.652344 67.558594 44.527344 L 65.675781 46.746094 L 63.726562 45.25 C 59.3125 41.855469 56.597656 40.585938 52.644531 40.070312 C 47.519531 39.402344 42.605469 40.535156 39.003906 43.207031 C 37.324219 44.453125 34.492188 47.84375 33.761719 49.484375 C 33.445312 50.1875 32.890625 52.070312 32.53125 53.667969 C 31.972656 56.128906 31.902344 56.964844 32.070312 59.167969 C 32.425781 63.84375 33.820312 69 35.886719 73.265625 C 37.222656 76.027344 41.054688 82.09375 42.546875 83.816406 C 43.363281 84.757812 43.984375 85.585938 43.929688 85.65625 C 43.871094 85.730469 43.253906 85.238281 42.550781 84.566406 Z M 42.550781 84.566406 " fill-opacity="0.984" fill-rule="nonzero"/><g clip-path="url(#d1a3d75486)"><path stroke-linecap="butt" transform="matrix(0.374947, 0, 0, 0.374947, 26.878525, -11.813594)" fill="none" stroke-linejoin="miter" d="M 41.798573 257.049556 C 24.306525 240.318031 8.543887 210.365894 7.033258 190.988163 C 5.949772 177.090372 10.200371 161.358988 17.763937 151.305488 C 24.900359 141.814568 31.963854 136.417974 42.069445 132.719536 C 50.153917 129.760786 58.332153 128.958589 67.041714 130.292111 C 78.637098 132.063193 86.367354 135.126125 96.1604 141.835404 C 99.900511 144.387847 101.879956 145.315061 102.775916 144.92959 C 103.484349 144.617046 105.71383 142.731363 107.734948 140.7415 C 125.477031 123.270288 151.251497 116.904807 170.275011 125.301824 C 175.431987 127.572977 184.308238 133.990548 188.444238 138.418256 C 192.05933 142.30422 196.132821 149.378133 199.560387 157.723059 C 201.706523 162.963381 201.977395 164.401084 202.779591 174.621274 C 203.613042 185.268607 203.571369 186.164567 201.935722 193.80106 C 200.362584 201.166681 193.611632 220.461066 192.851109 219.763051 C 192.674 219.596361 193.392852 216.408412 194.434665 212.67872 C 195.486897 208.949028 196.6954 204.073341 197.132962 201.833442 C 198.143521 196.59312 198.247702 179.424034 197.299652 173.641969 C 195.018081 159.723341 187.850404 146.60691 178.474083 139.147525 C 172.494073 134.396856 171.441842 133.865531 163.774095 131.844413 C 154.460282 129.375315 143.292042 129.708695 134.144919 132.729954 C 125.008215 135.751213 114.996388 142.595928 108.495472 150.263675 L 103.473931 156.181175 L 98.275282 152.19103 C 86.502789 143.137671 79.262186 139.751777 68.719033 138.376583 C 55.050441 136.595082 41.944427 139.616341 32.338907 146.742345 C 27.859109 150.06573 20.305961 159.108671 18.35777 163.484288 C 17.513901 165.359552 16.034526 170.381093 15.076058 174.64211 C 13.586265 181.205535 13.398738 183.435016 13.846718 189.310844 C 14.794768 201.781351 18.514042 215.533289 24.025236 226.909892 C 27.588238 234.275513 37.808428 250.454876 41.788155 255.049274 C 43.965545 257.560044 45.622029 259.768689 45.476175 259.956215 C 45.319903 260.15416 43.673838 258.841475 41.798573 257.049556 Z M 41.798573 257.049556 " stroke="#000000" stroke-width="4.8" stroke-opacity="0.005" stroke-miterlimit="4"/></g><g clip-path="url(#7eb5fbdbee)"><path fill="#ffb74c" d="M 53.816406 74.660156 C 53.898438 74.652344 53.984375 74.644531 54.066406 74.636719 C 54.984375 74.515625 55.792969 74.070312 56.410156 73.382812 C 56.914062 72.835938 57.242188 72.175781 57.429688 71.402344 C 57.589844 70.796875 57.621094 70.117188 57.519531 69.449219 C 57.367188 68.109375 56.839844 66.847656 55.945312 65.738281 C 55.664062 65.382812 55.339844 65.03125 54.972656 64.722656 C 54.15625 64.027344 53.320312 63.632812 52.414062 63.414062 C 51.816406 63.296875 51.261719 63.253906 50.679688 63.347656 C 49.761719 63.507812 48.992188 63.910156 48.371094 64.59375 C 47.871094 65.144531 47.511719 65.886719 47.367188 66.703125 C 47.273438 67.132812 47.226562 67.558594 47.261719 67.980469 L 47.269531 68.105469 C 47.28125 68.234375 47.292969 68.359375 47.304688 68.484375 L 47.3125 68.605469 C 47.433594 69.570312 47.761719 70.472656 48.253906 71.316406 C 48.648438 71.960938 49.121094 72.554688 49.667969 73.058594 C 50.445312 73.753906 51.285156 74.234375 52.191406 74.453125 C 52.757812 74.660156 53.308594 74.699219 53.816406 74.660156 " fill-opacity="1" fill-rule="nonzero"/></g><g clip-path="url(#659d207156)"><path fill="#ffb74c" d="M 55.210938 61.789062 C 55.464844 62.800781 55.886719 63.683594 56.433594 64.441406 C 56.980469 65.199219 57.570312 65.746094 58.285156 66.164062 C 58.875 66.546875 59.503906 66.753906 60.179688 66.796875 L 60.515625 66.796875 C 61.1875 66.796875 61.820312 66.628906 62.367188 66.25 C 62.914062 65.957031 63.417969 65.492188 63.839844 64.945312 C 64.429688 64.1875 64.808594 63.261719 64.976562 62.167969 C 65.019531 61.703125 65.0625 61.242188 65.0625 60.738281 C 65.0625 60.359375 65.019531 59.980469 64.976562 59.601562 C 64.894531 58.925781 64.722656 58.296875 64.472656 57.664062 C 64.050781 56.613281 63.460938 55.726562 62.703125 55.054688 C 62.15625 54.550781 61.566406 54.171875 60.9375 53.960938 C 60.136719 53.664062 59.335938 53.625 58.539062 53.835938 C 57.78125 54.003906 57.105469 54.421875 56.515625 55.054688 C 56.011719 55.601562 55.675781 56.191406 55.378906 56.90625 C 55.085938 57.75 54.917969 58.632812 54.917969 59.640625 C 54.917969 59.8125 54.960938 59.980469 54.960938 60.230469 C 55.003906 60.738281 55.085938 61.285156 55.210938 61.789062 " fill-opacity="1" fill-rule="nonzero"/></g><g clip-path="url(#6711f4031d)"><path fill="#ffb74c" d="M 67.164062 63.765625 C 67.460938 64.609375 67.882812 65.28125 68.46875 65.828125 C 69.226562 66.546875 70.113281 66.964844 71.121094 67.007812 L 71.375 67.007812 C 71.878906 67.007812 72.34375 66.882812 72.847656 66.882812 C 73.5625 66.585938 74.195312 66.164062 74.824219 65.578125 C 75.457031 64.945312 75.960938 64.230469 76.339844 63.429688 C 76.886719 62.292969 77.183594 61.117188 77.226562 59.851562 C 77.226562 59.136719 77.183594 58.421875 77.015625 57.789062 C 76.804688 56.90625 76.507812 56.191406 76.046875 55.558594 C 75.289062 54.507812 74.277344 53.917969 73.101562 53.75 C 73.058594 53.75 73.058594 53.75 73.015625 53.75 L 72.046875 53.75 C 71.5 53.835938 70.910156 54.003906 70.40625 54.296875 C 69.734375 54.675781 69.101562 55.222656 68.554688 55.894531 C 67.964844 56.613281 67.542969 57.453125 67.207031 58.378906 C 66.914062 59.222656 66.785156 60.105469 66.746094 60.988281 C 66.746094 61.367188 66.746094 61.746094 66.785156 62.125 C 66.871094 62.714844 66.996094 63.261719 67.164062 63.765625 " fill-opacity="1" fill-rule="nonzero"/></g><g clip-path="url(#5cba3e702f)"><path fill="#ffb74c" d="M 77.769531 77.992188 C 77.222656 77.195312 76.546875 76.4375 75.746094 75.761719 C 75.199219 75.257812 74.652344 74.710938 74.191406 74.121094 C 73.683594 73.488281 73.222656 72.816406 72.84375 72.226562 L 72.550781 71.765625 C 72.253906 71.300781 71.960938 70.878906 71.664062 70.417969 C 71.203125 69.742188 70.78125 69.195312 70.316406 68.777344 C 69.519531 68.019531 68.59375 67.511719 67.539062 67.261719 C 66.867188 67.09375 66.152344 67.050781 65.476562 67.050781 C 64.847656 67.050781 64.214844 67.175781 63.625 67.429688 C 62.910156 67.722656 62.277344 68.1875 61.605469 68.816406 C 61.226562 69.195312 60.804688 69.660156 60.386719 70.207031 C 59.964844 70.753906 59.585938 71.300781 59.207031 71.847656 L 58.996094 72.183594 C 58.492188 72.859375 57.984375 73.617188 57.398438 74.289062 C 56.890625 74.878906 56.429688 75.339844 55.964844 75.761719 C 55.375 76.265625 54.789062 76.855469 54.324219 77.488281 C 53.652344 78.371094 53.144531 79.339844 52.808594 80.308594 C 52.597656 80.980469 52.472656 81.65625 52.429688 82.328125 C 52.386719 82.917969 52.429688 83.546875 52.558594 84.097656 C 52.894531 85.652344 53.691406 86.917969 54.996094 87.84375 C 55.753906 88.390625 56.597656 88.726562 57.566406 88.808594 C 57.691406 88.851562 57.777344 88.851562 57.902344 88.851562 L 58.535156 88.851562 C 58.914062 88.851562 59.289062 88.808594 59.585938 88.769531 C 60.425781 88.597656 61.269531 88.390625 62.027344 88.179688 L 62.070312 88.179688 C 62.785156 88.011719 63.5 87.800781 64.214844 87.671875 C 64.511719 87.632812 64.890625 87.546875 65.265625 87.546875 C 65.773438 87.546875 66.234375 87.546875 66.65625 87.589844 C 67.246094 87.671875 67.917969 87.800781 68.632812 87.96875 C 68.972656 88.050781 69.351562 88.179688 69.6875 88.261719 C 70.148438 88.390625 70.65625 88.515625 71.160156 88.640625 C 71.664062 88.769531 72.210938 88.894531 72.800781 88.894531 L 73.8125 88.894531 C 73.894531 88.894531 73.9375 88.851562 74.023438 88.726562 C 74.273438 88.726562 74.570312 88.683594 74.820312 88.597656 C 75.496094 88.429688 76.167969 88.136719 76.800781 87.671875 C 77.640625 87.085938 78.316406 86.328125 78.734375 85.441406 C 79.199219 84.476562 79.410156 83.464844 79.367188 82.328125 C 79.324219 81.695312 79.199219 80.980469 78.945312 80.308594 C 78.695312 79.507812 78.316406 78.75 77.769531 77.992188 " fill-opacity="1" fill-rule="nonzero"/></g><g clip-path="url(#67fb88d44b)"><path fill="#ffb74c" d="M 85.128906 66.703125 C 84.984375 65.886719 84.625 65.144531 84.117188 64.59375 C 83.5 63.910156 82.734375 63.507812 81.816406 63.347656 C 81.230469 63.253906 80.679688 63.296875 80.078125 63.414062 C 79.171875 63.632812 78.339844 64.027344 77.523438 64.722656 C 77.15625 65.03125 76.832031 65.382812 76.550781 65.738281 C 75.65625 66.847656 75.128906 68.109375 74.972656 69.449219 C 74.875 70.117188 74.90625 70.796875 75.066406 71.402344 C 75.253906 72.175781 75.578125 72.835938 76.085938 73.382812 C 76.703125 74.070312 77.511719 74.515625 78.429688 74.636719 C 78.511719 74.644531 78.597656 74.652344 78.679688 74.660156 C 79.1875 74.699219 79.738281 74.660156 80.300781 74.453125 C 81.207031 74.234375 82.046875 73.753906 82.828125 73.058594 C 83.375 72.554688 83.84375 71.960938 84.238281 71.316406 C 84.730469 70.472656 85.058594 69.570312 85.179688 68.605469 L 85.191406 68.484375 C 85.199219 68.359375 85.214844 68.234375 85.222656 68.105469 L 85.234375 67.980469 C 85.269531 67.558594 85.21875 67.132812 85.128906 66.703125 " fill-opacity="1" fill-rule="nonzero"/></g></svg>