<svg xmlns="http://www.w3.org/2000/svg" xmlns:xlink="http://www.w3.org/1999/xlink" width="177" zoomAndPan="magnify" viewBox="0 0 132.75 107.249998" height="143" preserveAspectRatio="xMidYMid meet" version="1.0"><defs><clipPath id="ec2799c1e0"><path d="M 0.335938 0 L 131.761719 0 L 131.761719 106.503906 L 0.335938 106.503906 Z M 0.335938 0 " clip-rule="nonzero"/></clipPath><clipPath id="d40b118e08"><path d="M 27.050781 23 L 105.59375 23 L 105.59375 96 L 27.050781 96 Z M 27.050781 23 " clip-rule="nonzero"/></clipPath><clipPath id="f1db2d8260"><path d="M 47.226562 62 L 58 62 L 58 75 L 47.226562 75 Z M 47.226562 62 " clip-rule="nonzero"/></clipPath><clipPath id="0b8011d93d"><path d="M 54 53.246094 L 65 53.246094 L 65 67 L 54 67 Z M 54 53.246094 " clip-rule="nonzero"/></clipPath><clipPath id="808302d8e7"><path d="M 66 53.246094 L 78 53.246094 L 78 67 L 66 67 Z M 66 53.246094 " clip-rule="nonzero"/></clipPath><clipPath id="ddc9481678"><path d="M 52.355469 66.539062 L 79.238281 66.539062 L 79.238281 88.242188 L 52.355469 88.242188 Z M 52.355469 66.539062 " clip-rule="nonzero"/></clipPath><clipPath id="cdcfb55975"><path d="M 74 62 L 85.332031 62 L 85.332031 75 L 74 75 Z M 74 62 " clip-rule="nonzero"/></clipPath></defs><g clip-path="url(#ec2799c1e0)"><path fill="#95cb7e" d="M 131.214844 59.523438 L 76.1875 4.175781 C 75.535156 3.515625 74.824219 2.921875 74.054688 2.402344 C 73.289062 1.882812 72.476562 1.445312 71.617188 1.085938 C 70.761719 0.726562 69.878906 0.457031 68.96875 0.273438 C 68.058594 0.0898438 67.140625 0 66.210938 0 C 65.28125 0 64.363281 0.0898438 63.453125 0.273438 C 62.542969 0.457031 61.660156 0.726562 60.804688 1.085938 C 59.949219 1.445312 59.136719 1.882812 58.367188 2.402344 C 57.597656 2.921875 56.886719 3.515625 56.234375 4.175781 L 0.96875 59.523438 C 0.773438 59.703125 0.625 59.914062 0.519531 60.160156 C 0.414062 60.402344 0.363281 60.65625 0.363281 60.917969 C 0.363281 61.183594 0.414062 61.4375 0.519531 61.679688 C 0.625 61.921875 0.773438 62.136719 0.96875 62.316406 C 1.148438 62.507812 1.359375 62.65625 1.601562 62.761719 C 1.847656 62.867188 2.097656 62.921875 2.363281 62.921875 C 2.628906 62.921875 2.882812 62.867188 3.125 62.761719 C 3.367188 62.65625 3.578125 62.507812 3.761719 62.316406 L 58.988281 7.089844 C 59.457031 6.628906 59.964844 6.214844 60.511719 5.855469 C 61.058594 5.492188 61.636719 5.1875 62.246094 4.941406 C 62.851562 4.691406 63.476562 4.503906 64.121094 4.375 C 64.765625 4.25 65.414062 4.1875 66.070312 4.1875 C 66.726562 4.1875 67.378906 4.25 68.023438 4.375 C 68.664062 4.503906 69.292969 4.691406 69.898438 4.941406 C 70.507812 5.1875 71.082031 5.492188 71.632812 5.855469 C 72.179688 6.214844 72.6875 6.628906 73.15625 7.089844 L 128.382812 62.316406 C 128.765625 62.710938 129.230469 62.910156 129.78125 62.914062 C 130.339844 62.914062 130.820312 62.714844 131.214844 62.316406 C 131.398438 62.128906 131.539062 61.914062 131.636719 61.671875 C 131.738281 61.433594 131.785156 61.179688 131.785156 60.917969 C 131.785156 60.660156 131.738281 60.40625 131.636719 60.164062 C 131.539062 59.921875 131.398438 59.710938 131.214844 59.523438 Z M 107.433594 92.285156 C 107.433594 92.949219 107.367188 93.609375 107.238281 94.265625 C 107.109375 94.917969 106.917969 95.554688 106.660156 96.167969 C 106.40625 96.785156 106.09375 97.371094 105.726562 97.925781 C 105.355469 98.480469 104.9375 98.992188 104.464844 99.464844 C 103.996094 99.9375 103.484375 100.359375 102.929688 100.730469 C 102.378906 101.101562 101.792969 101.417969 101.179688 101.675781 C 100.5625 101.929688 99.929688 102.125 99.277344 102.257812 C 98.625 102.390625 97.964844 102.457031 97.296875 102.460938 L 34.886719 102.460938 C 34.21875 102.460938 33.554688 102.394531 32.902344 102.265625 C 32.246094 102.132812 31.609375 101.941406 30.992188 101.683594 C 30.375 101.429688 29.789062 101.117188 29.234375 100.746094 C 28.675781 100.375 28.164062 99.953125 27.691406 99.480469 C 27.21875 99.007812 26.796875 98.492188 26.425781 97.9375 C 26.054688 97.382812 25.742188 96.796875 25.484375 96.179688 C 25.230469 95.5625 25.035156 94.925781 24.90625 94.269531 C 24.777344 93.613281 24.710938 92.953125 24.710938 92.285156 L 24.710938 64.03125 L 20.71875 64.03125 L 20.71875 92.324219 C 20.71875 93.253906 20.8125 94.175781 20.992188 95.089844 C 21.171875 96 21.441406 96.886719 21.796875 97.746094 C 22.15625 98.605469 22.589844 99.421875 23.109375 100.195312 C 23.625 100.96875 24.210938 101.683594 24.871094 102.339844 C 25.527344 103 26.242188 103.585938 27.015625 104.101562 C 27.789062 104.621094 28.605469 105.054688 29.464844 105.410156 C 30.324219 105.769531 31.210938 106.035156 32.121094 106.21875 C 33.035156 106.398438 33.957031 106.492188 34.886719 106.492188 L 97.296875 106.492188 C 98.226562 106.488281 99.144531 106.394531 100.054688 106.210938 C 100.964844 106.027344 101.847656 105.757812 102.707031 105.402344 C 103.5625 105.042969 104.378906 104.605469 105.148438 104.089844 C 105.917969 103.570312 106.632812 102.984375 107.289062 102.328125 C 107.945312 101.667969 108.527344 100.953125 109.042969 100.183594 C 109.558594 99.410156 109.992188 98.59375 110.347656 97.734375 C 110.703125 96.878906 110.972656 95.992188 111.152344 95.082031 C 111.332031 94.171875 111.421875 93.253906 111.421875 92.324219 L 111.421875 64.03125 L 107.433594 64.03125 Z M 107.433594 92.285156 " fill-opacity="1" fill-rule="nonzero"/></g><path fill="#ffb74c" d="M 42.625 83.996094 C 36.105469 77.761719 30.234375 66.601562 29.671875 59.378906 C 29.265625 54.199219 30.851562 48.335938 33.667969 44.59375 C 36.328125 41.058594 38.960938 39.042969 42.722656 37.667969 C 45.738281 36.5625 48.785156 36.265625 52.027344 36.761719 C 56.351562 37.421875 59.230469 38.5625 62.882812 41.0625 C 64.273438 42.015625 65.011719 42.359375 65.347656 42.214844 C 65.609375 42.097656 66.4375 41.398438 67.191406 40.65625 C 73.804688 34.144531 83.410156 31.773438 90.5 34.902344 C 92.421875 35.75 95.726562 38.140625 97.269531 39.792969 C 98.617188 41.238281 100.136719 43.875 101.410156 46.984375 C 102.207031 48.933594 102.3125 49.472656 102.609375 53.277344 C 102.921875 57.246094 102.90625 57.582031 102.296875 60.429688 C 101.710938 63.171875 99.195312 70.359375 98.914062 70.101562 C 98.84375 70.039062 99.109375 68.851562 99.5 67.460938 C 99.890625 66.074219 100.34375 64.253906 100.503906 63.421875 C 100.882812 61.464844 100.921875 55.070312 100.570312 52.914062 C 99.71875 47.730469 97.046875 42.839844 93.550781 40.058594 C 91.324219 38.289062 90.933594 38.09375 88.078125 37.339844 C 84.601562 36.417969 80.441406 36.546875 77.035156 37.671875 C 73.628906 38.796875 69.898438 41.347656 67.476562 44.207031 L 65.605469 46.410156 L 63.671875 44.921875 C 59.28125 41.546875 56.585938 40.289062 52.652344 39.777344 C 47.5625 39.113281 42.679688 40.234375 39.097656 42.894531 C 37.429688 44.132812 34.617188 47.5 33.886719 49.128906 C 33.574219 49.828125 33.023438 51.699219 32.664062 53.289062 C 32.113281 55.734375 32.042969 56.5625 32.207031 58.753906 C 32.558594 63.398438 33.949219 68.523438 36 72.761719 C 37.332031 75.511719 41.136719 81.539062 42.621094 83.25 C 43.433594 84.183594 44.050781 85.007812 43.996094 85.078125 C 43.9375 85.152344 43.320312 84.664062 42.625 83.996094 Z M 42.625 83.996094 " fill-opacity="0.984" fill-rule="nonzero"/><g clip-path="url(#d40b118e08)"><path stroke-linecap="butt" transform="matrix(0.372627, 0, 0, 0.372627, 27.049035, -11.788225)" fill="none" stroke-linejoin="miter" d="M 41.800379 257.051219 C 24.304264 240.320363 8.548326 210.370452 7.038775 190.987398 C 5.948543 177.08695 10.204639 161.351978 17.762876 151.30927 C 24.901795 141.822162 31.967332 136.412938 42.062454 132.722924 C 50.155324 129.756237 58.332059 128.95953 67.032943 130.29087 C 78.637616 132.062496 86.363582 135.12353 96.16518 141.832645 C 99.897125 144.390495 101.878411 145.312999 102.779948 144.925128 C 103.482309 144.610638 105.704703 142.734182 107.727921 140.742414 C 125.475628 123.267265 151.253307 116.904088 170.279939 125.300965 C 175.437572 127.575775 184.306184 133.991366 188.446966 138.425672 C 192.063599 142.30438 196.141483 149.3804 199.558938 157.724862 C 201.697469 162.955876 201.98051 164.402529 202.777217 174.612964 C 203.615857 185.263684 203.573925 186.165222 201.938578 193.807324 C 200.366129 201.166384 193.615082 220.455091 192.860306 219.763214 C 192.671612 219.595486 193.384456 216.408656 194.432755 212.676711 C 195.481054 208.955248 196.697081 204.070174 197.126884 201.837296 C 198.143734 196.585317 198.248564 179.424657 197.305095 173.638045 C 195.019803 159.727114 187.849435 146.602407 178.467157 139.138516 C 172.491851 134.38972 171.443552 133.86557 163.780484 131.842353 C 154.45062 129.368366 143.286233 129.714305 134.145063 132.733407 C 125.003893 135.752509 114.992635 142.597903 108.49318 150.271454 L 103.471826 156.183862 L 98.282745 152.189842 C 86.499861 143.132536 79.266596 139.757012 68.710222 138.38374 C 55.050882 136.601632 41.947141 139.61025 32.334237 146.749169 C 27.857999 150.072277 20.310244 159.108617 18.349924 163.480025 C 17.511285 165.356481 16.033183 170.377834 15.068747 174.644413 C 13.590645 181.206766 13.401951 183.429161 13.842237 189.31012 C 14.785706 201.774398 18.517652 215.528085 24.021223 226.902132 C 27.595924 234.282159 37.806359 250.457417 41.789896 255.048968 C 43.970359 257.554403 45.626671 259.766315 45.47991 259.955008 C 45.322665 260.154185 43.666352 258.843811 41.800379 257.051219 Z M 41.800379 257.051219 " stroke="#000000" stroke-width="4.8" stroke-opacity="0.005" stroke-miterlimit="4"/></g><g clip-path="url(#f1db2d8260)"><path fill="#ffb74c" d="M 53.820312 74.148438 C 53.902344 74.140625 53.988281 74.132812 54.070312 74.128906 C 54.980469 74.007812 55.785156 73.5625 56.398438 72.882812 C 56.898438 72.339844 57.222656 71.683594 57.414062 70.914062 C 57.570312 70.308594 57.601562 69.636719 57.5 68.972656 C 57.347656 67.640625 56.828125 66.386719 55.933594 65.28125 C 55.65625 64.929688 55.332031 64.578125 54.96875 64.273438 C 54.15625 63.585938 53.324219 63.191406 52.425781 62.972656 C 51.832031 62.855469 51.28125 62.816406 50.703125 62.90625 C 49.792969 63.066406 49.027344 63.46875 48.410156 64.144531 C 47.914062 64.691406 47.554688 65.433594 47.410156 66.246094 C 47.320312 66.671875 47.273438 67.09375 47.304688 67.511719 L 47.316406 67.636719 C 47.328125 67.761719 47.335938 67.886719 47.347656 68.015625 L 47.355469 68.136719 C 47.476562 69.09375 47.804688 69.988281 48.292969 70.828125 C 48.683594 71.46875 49.15625 72.058594 49.699219 72.558594 C 50.46875 73.25 51.304688 73.726562 52.203125 73.945312 C 52.769531 74.148438 53.316406 74.1875 53.820312 74.148438 " fill-opacity="1" fill-rule="nonzero"/></g><g clip-path="url(#0b8011d93d)"><path fill="#ffb74c" d="M 55.207031 61.359375 C 55.457031 62.363281 55.878906 63.242188 56.421875 63.992188 C 56.964844 64.746094 57.550781 65.289062 58.261719 65.707031 C 58.847656 66.085938 59.472656 66.292969 60.144531 66.335938 L 60.476562 66.335938 C 61.148438 66.335938 61.773438 66.167969 62.320312 65.792969 C 62.863281 65.5 63.363281 65.039062 63.78125 64.496094 C 64.367188 63.742188 64.746094 62.824219 64.910156 61.734375 C 64.953125 61.273438 64.996094 60.816406 64.996094 60.3125 C 64.996094 59.9375 64.953125 59.558594 64.910156 59.183594 C 64.828125 58.515625 64.660156 57.886719 64.410156 57.261719 C 63.992188 56.214844 63.40625 55.335938 62.652344 54.667969 C 62.109375 54.164062 61.523438 53.789062 60.894531 53.578125 C 60.101562 53.285156 59.308594 53.246094 58.511719 53.453125 C 57.757812 53.621094 57.089844 54.039062 56.503906 54.667969 C 56.003906 55.210938 55.667969 55.796875 55.375 56.507812 C 55.082031 57.34375 54.914062 58.222656 54.914062 59.226562 C 54.914062 59.394531 54.957031 59.558594 54.957031 59.8125 C 55 60.3125 55.082031 60.855469 55.207031 61.359375 " fill-opacity="1" fill-rule="nonzero"/></g><g clip-path="url(#808302d8e7)"><path fill="#ffb74c" d="M 67.085938 63.324219 C 67.378906 64.160156 67.796875 64.832031 68.382812 65.375 C 69.136719 66.085938 70.015625 66.503906 71.019531 66.546875 L 71.269531 66.546875 C 71.773438 66.546875 72.230469 66.421875 72.734375 66.421875 C 73.445312 66.128906 74.074219 65.707031 74.699219 65.125 C 75.328125 64.496094 75.828125 63.785156 76.207031 62.992188 C 76.75 61.859375 77.042969 60.691406 77.082031 59.433594 C 77.082031 58.722656 77.042969 58.011719 76.875 57.386719 C 76.664062 56.507812 76.371094 55.796875 75.914062 55.167969 C 75.160156 54.121094 74.15625 53.535156 72.984375 53.371094 C 72.941406 53.371094 72.941406 53.371094 72.902344 53.371094 L 71.9375 53.371094 C 71.394531 53.453125 70.808594 53.621094 70.308594 53.914062 C 69.636719 54.289062 69.011719 54.832031 68.46875 55.503906 C 67.882812 56.214844 67.464844 57.050781 67.128906 57.972656 C 66.835938 58.808594 66.710938 59.6875 66.667969 60.5625 C 66.667969 60.941406 66.667969 61.316406 66.710938 61.695312 C 66.792969 62.277344 66.917969 62.824219 67.085938 63.324219 " fill-opacity="1" fill-rule="nonzero"/></g><g clip-path="url(#ddc9481678)"><path fill="#ffb74c" d="M 77.625 77.460938 C 77.078125 76.667969 76.410156 75.914062 75.617188 75.246094 C 75.070312 74.742188 74.527344 74.199219 74.066406 73.613281 C 73.566406 72.988281 73.105469 72.316406 72.730469 71.730469 L 72.4375 71.273438 C 72.144531 70.8125 71.851562 70.394531 71.558594 69.933594 C 71.097656 69.265625 70.679688 68.722656 70.21875 68.300781 C 69.425781 67.550781 68.503906 67.046875 67.460938 66.796875 C 66.789062 66.628906 66.078125 66.585938 65.410156 66.585938 C 64.78125 66.585938 64.15625 66.710938 63.570312 66.964844 C 62.859375 67.257812 62.230469 67.71875 61.5625 68.34375 C 61.183594 68.722656 60.765625 69.179688 60.347656 69.726562 C 59.929688 70.269531 59.554688 70.8125 59.175781 71.355469 L 58.96875 71.691406 C 58.464844 72.359375 57.964844 73.113281 57.378906 73.78125 C 56.875 74.367188 56.417969 74.828125 55.957031 75.246094 C 55.371094 75.746094 54.785156 76.332031 54.324219 76.960938 C 53.65625 77.839844 53.152344 78.800781 52.820312 79.761719 C 52.609375 80.433594 52.484375 81.101562 52.441406 81.769531 C 52.402344 82.355469 52.441406 82.984375 52.570312 83.527344 C 52.902344 85.074219 53.699219 86.332031 54.996094 87.25 C 55.746094 87.792969 56.582031 88.128906 57.546875 88.210938 C 57.671875 88.253906 57.753906 88.253906 57.878906 88.253906 L 58.507812 88.253906 C 58.882812 88.253906 59.261719 88.210938 59.554688 88.171875 C 60.390625 88.003906 61.226562 87.792969 61.980469 87.585938 L 62.023438 87.585938 C 62.734375 87.417969 63.445312 87.207031 64.15625 87.082031 C 64.449219 87.042969 64.824219 86.957031 65.199219 86.957031 C 65.703125 86.957031 66.164062 86.957031 66.582031 87 C 67.167969 87.082031 67.835938 87.207031 68.546875 87.375 C 68.882812 87.460938 69.257812 87.585938 69.59375 87.667969 C 70.050781 87.792969 70.554688 87.921875 71.054688 88.046875 C 71.558594 88.171875 72.101562 88.296875 72.6875 88.296875 L 73.691406 88.296875 C 73.773438 88.296875 73.816406 88.253906 73.902344 88.128906 C 74.152344 88.128906 74.445312 88.085938 74.695312 88.003906 C 75.363281 87.835938 76.035156 87.542969 76.660156 87.082031 C 77.5 86.496094 78.167969 85.746094 78.585938 84.867188 C 79.046875 83.902344 79.253906 82.902344 79.210938 81.769531 C 79.171875 81.144531 79.046875 80.433594 78.792969 79.761719 C 78.542969 78.96875 78.167969 78.214844 77.625 77.460938 " fill-opacity="1" fill-rule="nonzero"/></g><g clip-path="url(#cdcfb55975)"><path fill="#ffb74c" d="M 84.9375 66.246094 C 84.796875 65.433594 84.4375 64.691406 83.933594 64.144531 C 83.320312 63.46875 82.558594 63.066406 81.648438 62.90625 C 81.066406 62.816406 80.519531 62.855469 79.921875 62.972656 C 79.019531 63.191406 78.191406 63.585938 77.382812 64.273438 C 77.015625 64.578125 76.695312 64.929688 76.414062 65.28125 C 75.523438 66.386719 75 67.640625 74.847656 68.972656 C 74.75 69.636719 74.777344 70.308594 74.9375 70.914062 C 75.125 71.683594 75.449219 72.339844 75.949219 72.882812 C 76.566406 73.5625 77.367188 74.007812 78.28125 74.128906 C 78.363281 74.132812 78.449219 74.140625 78.53125 74.148438 C 79.035156 74.1875 79.582031 74.148438 80.140625 73.945312 C 81.039062 73.726562 81.878906 73.25 82.652344 72.558594 C 83.195312 72.058594 83.664062 71.46875 84.050781 70.828125 C 84.542969 69.988281 84.867188 69.09375 84.988281 68.136719 L 85.003906 68.015625 C 85.011719 67.886719 85.023438 67.761719 85.03125 67.636719 L 85.042969 67.511719 C 85.078125 67.09375 85.027344 66.671875 84.9375 66.246094 " fill-opacity="1" fill-rule="nonzero"/></g></svg>